External Loads File
version=1
nRows=47
nColumns=13
Range=5.000000e-03-10 seconds
endheader
time 	forceRightX 	forceRightY 	forceRightZ 	pointRightX 	pointRightY 	pointRightZ 	forceLeftX 	forceLeftY 	forceLeftZ 	pointLeftX 	pointLeftY 	pointLeftZ 		
0.005000 38.834486 145.127517 -0.000000 0.338773 0.394662 -0.126454 34.136020 174.491549 -0.000000 0.029391 0.245083 -0.360853
0.010000 37.888098 145.205185 -0.000000 0.338686 0.394855 -0.126464 35.296008 174.899575 -0.000000 0.029522 0.244913 -0.360861
0.015000 37.055475 145.277349 -0.000000 0.338605 0.395008 -0.126483 36.555917 175.353901 -0.000000 0.029630 0.244714 -0.360854
0.020000 36.387603 145.341737 -0.000000 0.338380 0.395061 -0.126378 37.951951 175.862908 -0.000000 0.029733 0.244530 -0.360849
0.025000 32.902231 146.110889 -0.000000 0.338351 0.394885 -0.126289 35.856571 177.202347 -0.000000 0.029832 0.236384 -0.360824
0.030000 32.344060 146.226459 -0.000000 0.338262 0.395658 -0.126264 37.208395 177.913189 -0.000000 0.029897 0.236209 -0.360774
0.035000 35.651894 145.495708 -0.000000 0.338185 0.394910 -0.126277 43.130348 177.615043 -0.000000 0.029951 0.243970 -0.360762
0.040000 35.691486 145.559595 -0.000000 0.338182 0.395086 -0.126295 44.850279 178.202350 -0.000000 0.030028 0.243850 -0.360773
0.045000 35.821030 145.602348 -0.000000 0.338168 0.395280 -0.126283 46.391888 178.697566 -0.000000 0.030097 0.243708 -0.360766
0.050000 36.026551 145.583949 -0.000000 0.338165 0.395408 -0.126278 47.699709 179.026831 -0.000000 0.030153 0.243594 -0.360763
0.055000 36.198386 145.486748 -0.000000 0.338179 0.395536 -0.126265 48.612904 179.152934 -0.000000 0.030184 0.243482 -0.360762
0.060000 36.273432 145.295831 -0.000000 0.338165 0.395646 -0.126279 49.051140 179.050337 -0.000000 0.030204 0.243392 -0.360748
0.065000 36.203636 145.019595 -0.000000 0.338172 0.395750 -0.126271 48.982850 178.730684 -0.000000 0.030229 0.243285 -0.360744
0.070000 36.026557 144.679776 -0.000000 0.338179 0.395815 -0.126250 48.483066 178.218718 -0.000000 0.030253 0.243202 -0.360759
0.075000 35.778046 144.328401 -0.000000 0.338179 0.395894 -0.126269 47.600596 177.566460 -0.000000 0.030268 0.243132 -0.360756
0.080000 35.533727 144.010506 -0.000000 0.338183 0.395950 -0.126271 46.421511 176.810206 -0.000000 0.030265 0.243051 -0.360747
0.085000 35.324308 143.762138 -0.000000 0.338188 0.396011 -0.126269 44.989408 175.983322 -0.000000 0.030276 0.242966 -0.360742
0.090000 35.177088 143.601731 -0.000000 0.338167 0.396076 -0.126259 43.375500 175.118400 -0.000000 0.030288 0.242893 -0.360752
0.095000 35.112634 143.534045 -0.000000 0.338143 0.396123 -0.126287 41.687082 174.263121 -0.000000 0.030303 0.242819 -0.360745
0.100000 35.114400 143.550201 -0.000000 0.338107 0.396202 -0.126241 40.030459 173.479627 -0.000000 0.030305 0.242754 -0.360762
0.105000 35.168029 143.621163 -0.000000 0.338079 0.396276 -0.126246 38.546084 172.819340 -0.000000 0.030327 0.242672 -0.360755
0.110000 35.264512 143.715315 -0.000000 0.338054 0.396342 -0.126279 37.380401 172.319434 -0.000000 0.030332 0.242595 -0.360750
0.115000 35.247750 143.849444 -0.000000 0.338003 0.396714 -0.126250 36.457856 172.041364 -0.000000 0.030388 0.242511 -0.360739
0.120000 35.350382 143.962354 -0.000000 0.337939 0.396833 -0.126281 36.094044 171.935968 -0.000000 0.030400 0.242424 -0.360756
0.125000 35.483690 144.091133 -0.000000 0.337861 0.396957 -0.126303 36.150815 172.029693 -0.000000 0.030433 0.242344 -0.360768
0.130000 35.765406 144.230015 -0.000000 0.337769 0.396769 -0.126278 36.696254 172.281776 -0.000000 0.030469 0.242214 -0.360768
0.135000 35.978624 144.437457 -0.000000 0.337706 0.396893 -0.126287 37.391979 172.707231 -0.000000 0.030512 0.242088 -0.360762
0.140000 36.175090 144.671817 -0.000000 0.337620 0.397046 -0.126226 38.241725 173.228842 -0.000000 0.030562 0.241973 -0.360779
0.145000 36.321175 144.892463 -0.000000 0.337537 0.397171 -0.126248 39.176724 173.791361 -0.000000 0.030618 0.241865 -0.360769
0.150000 36.351182 145.069614 -0.000000 0.337468 0.397338 -0.126238 40.101361 174.364480 -0.000000 0.030666 0.241759 -0.360789
0.155000 36.277807 145.167637 -0.000000 0.337391 0.397434 -0.126252 41.002931 174.907683 -0.000000 0.030723 0.241643 -0.360779
0.160000 36.102118 145.178681 -0.000000 0.337317 0.397530 -0.126243 41.835727 175.396819 -0.000000 0.030781 0.241556 -0.360790
0.165000 35.850718 145.121634 -0.000000 0.337244 0.397642 -0.126254 42.575806 175.827201 -0.000000 0.030822 0.241464 -0.360805
0.170000 35.610225 145.014778 -0.000000 0.337196 0.397706 -0.126256 43.278614 176.194864 -0.000000 0.030868 0.241374 -0.360796
0.175000 35.379355 144.880699 -0.000000 0.337144 0.397849 -0.126263 43.906718 176.516116 -0.000000 0.030903 0.241303 -0.360799
0.180000 35.243271 144.695712 -0.000000 0.337142 0.397900 -0.126288 44.544123 176.766022 -0.000000 0.030934 0.241244 -0.360814
0.185000 35.153190 144.461966 -0.000000 0.337111 0.397932 -0.126298 45.120579 176.947990 -0.000000 0.030940 0.241210 -0.360816
0.190000 35.068207 144.185110 -0.000000 0.337125 0.397965 -0.126297 45.576594 177.055011 -0.000000 0.030939 0.241167 -0.360821
0.195000 34.968928 143.864873 -0.000000 0.337141 0.397965 -0.126322 45.892076 177.069336 -0.000000 0.030932 0.241156 -0.360822
0.200000 34.802956 143.509719 -0.000000 0.337168 0.397965 -0.126307 46.018484 176.989848 -0.000000 0.030931 0.241159 -0.360820
0.205000 34.576596 143.128811 -0.000000 0.337250 0.397951 -0.126267 45.976164 176.816142 -0.000000 0.030909 0.241159 -0.360807
0.210000 34.297375 142.748816 -0.000000 0.337284 0.397924 -0.126247 45.794914 176.576162 -0.000000 0.030875 0.241177 -0.360821
0.215000 33.998244 142.396975 -0.000000 0.337350 0.397896 -0.126241 45.558178 176.315381 -0.000000 0.030856 0.241198 -0.360811
0.220000 33.712750 142.094985 -0.000000 0.337402 0.397863 -0.126227 45.344133 176.082947 -0.000000 0.030824 0.241225 -0.360827
0.225000 33.461024 141.857199 -0.000000 0.337446 0.397849 -0.126232 45.175194 175.913739 -0.000000 0.030790 0.241249 -0.360822
0.230000 33.282227 141.689556 -0.000000 0.337497 0.397825 -0.126226 45.073421 175.819180 -0.000000 0.030774 0.241261 -0.360824
0.235000 33.193139 141.607990 -0.000000 0.337530 0.397825 -0.126215 45.041307 175.812535 -0.000000 0.030772 0.241265 -0.360819
